<?xml version="1.0" encoding="UTF-8" standalone="no"?>
<svg
   xmlns:dc="http://purl.org/dc/elements/1.1/"
   xmlns:cc="http://creativecommons.org/ns#"
   xmlns:rdf="http://www.w3.org/1999/02/22-rdf-syntax-ns#"
   xmlns:svg="http://www.w3.org/2000/svg"
   xmlns="http://www.w3.org/2000/svg"
   xmlns:sodipodi="http://sodipodi.sourceforge.net/DTD/sodipodi-0.dtd"
   xmlns:inkscape="http://www.inkscape.org/namespaces/inkscape"
   inkscape:version="1.0 (4035a4f, 2020-05-01)"
   sodipodi:docname="canstockphoto56923418.svg"
   version="1.1"
   id="svg2"
   xml:space="preserve"
   width="752.59998"
   height="752.53333"
   viewBox="0 0 752.59998 752.53333"><sodipodi:namedview
     inkscape:current-layer="g10"
     inkscape:window-maximized="1"
     inkscape:window-y="23"
     inkscape:window-x="36"
     inkscape:cy="319.4026"
     inkscape:cx="481.10697"
     inkscape:zoom="1.1368617"
     showgrid="false"
     id="namedview23"
     inkscape:window-height="855"
     inkscape:window-width="1404"
     inkscape:pageshadow="2"
     inkscape:pageopacity="0"
     guidetolerance="10"
     gridtolerance="10"
     objecttolerance="10"
     borderopacity="1"
     bordercolor="#666666"
     pagecolor="#ffffff" /><metadata
     id="metadata8"><rdf:RDF><cc:Work
         rdf:about=""><dc:format>image/svg+xml</dc:format><dc:type
           rdf:resource="http://purl.org/dc/dcmitype/StillImage" /></cc:Work></rdf:RDF></metadata><defs
     id="defs6" /><g
     id="g10"
     transform="matrix(1.3333333,0,0,-1.3333333,0,752.53333)"><g
       id="g12"
       transform="scale(0.1)"><path
         d="M 2970.1,5640.02 C 1496.77,5717.92 190.27,4631.04 18.7383,3146 -152.754,1660.97 871.531,304.449 2323.79,44.4492 l 43.6,377.3008 C 1122.53,657.172 247.766,1824.82 395.328,3102.52 542.895,4380.21 1660.75,5317.26 2926.5,5262.72 l 43.6,377.3"
         style="fill:#1f3a65;fill-opacity:1;fill-rule:evenodd;stroke:none"
         id="path14" /><path
         d="M 2674.56,3.92188 C 4147.88,-73.8008 5454.27,1013.39 5625.79,2498.4 5797.31,3983.45 4772.97,5339.53 3320.68,5599.56 l -43.56,-377.34 C 4521.97,4986.79 5396.8,3819.6 5249.24,2541.91 5101.66,1264.22 3983.74,326.699 2718.14,381.219 L 2674.56,3.92188"
         style="fill:#0db1f0;fill-opacity:1;fill-rule:evenodd;stroke:none"
         id="path16" /><path
         sodipodi:nodetypes="czccczccccccccccssssccsssccscccccccccccczc"
         d="m 1961.4206,3875.2403 c 7.6483,39.1168 24.6759,57.254 78.4494,80.9822 53.7735,23.7282 168.25,72.8825 168.25,72.8825 286.0758,123.9357 591.8142,256.3289 840.7625,364.135 l 84.0437,36.395 c 0,0 43.9104,23.8181 62.6857,9.8814 18.7752,-13.9366 14.0404,-31.1022 14.0404,-31.1022 l -3.8573,-39.1592 -5.5875,-48.3875 -5.5875,-48.3875 -22.35,-193.55 c 264.27,-39.69 513.05,-131.69 745.8,-275.2 l 121.795,294.555 60.8975,147.2775 30.4487,73.6388 c 27.9927,47.3117 61.4204,50.665 103.4682,8.2217 29.8229,-28.76 77.8267,-76.5909 105.8435,-107.0483 28.0167,-30.4574 55.1117,-61.74 81.2476,-93.8006 26.1358,-32.0605 51.3125,-64.8991 75.4926,-98.4685 C 4593.9838,3893.8281 4674.76,3747.8575 4737.2,3593.2125 4862.08,3283.9225 4913.615,2939.935 4872.67,2585.4 4741.9,1453.19 3717.66,641.051 2585.46,771.809 c -121.99,14.0895 -240.18,38.60025 -353.8463,72.507 -56.8331,16.95337 -112.5353,36.25575 -167.016,57.77897 -27.2404,10.76161 -54.1755,22.07843 -80.7939,33.93444 -26.6183,11.85601 -78.8938,37.16959 -78.8938,37.16959 l 23.9271,34.7755 c 56.9878,-20.74777 129.6371,-50.11762 201.1302,-69.86866 109.4638,-30.24103 83.2355,-23.81617 214.1627,-48.85584 445.2599,-49.46999 894.83,7.871 1196.64,195.59 301.68,187.73 472.91,457.57 513.58,809.66 31.7,274.52 -23.14,513.96 -165.55,717.51 -142.43,203.41 -384.01,387.61 -723.59,553.53 l -93.05,46.66 c -3.8967,-33.74 -7.7933,-67.48 -11.69,-101.22 l -5.845,-50.61 c -6.6864,-33.2518 -30.0807,-27.7741 -48.1849,-17.3961 l -31.2514,21.3861 -515.1387,382.2 c -98.0717,72.7967 -196.1433,145.5933 -294.215,218.39 0,0 -115.7022,81.0633 -147.1075,109.195 -31.4053,28.1317 -49.1479,46.9988 -56.5015,78.0422"
         style="fill:#1f3a65;fill-opacity:1;fill-rule:evenodd;stroke:none"
         id="path18" /><path
         sodipodi:nodetypes="cccszccccccccccccccccccccccccccsssssc"
         d="m 3059.08,4872.6 c 389.7565,-39.478 612.52,-168.43 612.52,-168.43 l -23.9509,-26.4911 c -37.389,14.9846 -96.8941,35.3486 -165.1399,53.4492 -28.3402,7.5166 -86.8886,21.1753 -148.2541,33.7396 -61.3655,12.5643 -71.8836,14.8786 -134.2877,25.7502 -446.7,51.59 -818.8674,-9.3879 -1112.6474,-195.1779 -293.91,-185.63 -460.21,-446.56 -498.91,-781.59 -59.92,-518.79 261.42,-941.55 964.17,-1268.14 l 59.58,-28.06 7.9075,68.4825 c 5.2717,45.655 10.5433,91.31 15.815,136.965 5.5378,41.8478 37.664,46.8923 81.4438,13.8875 177.1059,-131.4875 364.5328,-270.6375 514.7537,-382.165 l 294.445,-218.415 147.2225,-109.2075 47.2657,-35.9834 c 44.8416,-33.048 49.6147,-87.4264 1.207,-113.32 L 3652.7175,1845.11 3147.96,1626.47 2643.6975,1408.1 l -84.0438,-36.395 c 0,0 -28.6556,-13.4513 -42.0218,-17.1235 -22.2545,-5.8127 -37.4983,9.1608 -35.1675,36.4872 l 8.2006,74.6063 15.055,130.365 -22.14,2.27 c -338.89,39.13 -662.53,160.82 -970.74,365.35 -51.3575,-135.605 -102.715,-271.21 -154.0725,-406.815 l -25.6788,-67.8025 c -17.8145,-40.0919 -53.3857,-34.9196 -75.8818,-8.9595 -11.9627,13.6465 -18.234,21.0176 -29.8335,34.9691 -23.199,27.9032 -37.3983,44.4675 -59.1067,73.544 -43.4167,58.1529 -83.8014,118.5894 -120.951,181.0573 -74.29917,124.936 -135.65789,257.9979 -182.45157,397.1691 C 771.27675,2445.165 735.9495,2747.945 771.879,3059.03 902.64512,4191.23 1926.88,5003.37 3059.08,4872.6"
         style="fill:#0db1f0;fill-opacity:1;fill-rule:evenodd;stroke:none"
         id="path20" /><path
         d="m 4234.72,4111.22 c 787.7,-783.18 674.01,-1697.58 138.22,-2551.84 220.8,786.56 352.57,1594.5 -138.22,2551.84"
         style="fill:#2e4d8b;fill-opacity:1;fill-rule:evenodd;stroke:none"
         id="path22" /><path
         d="M 1417.07,4153.75 C 629.359,3370.57 743.051,2456.16 1278.84,1601.91 c -220.79,786.55 -352.57,1594.5 138.23,2551.84"
         style="fill:#7dd5f5;fill-opacity:1;fill-rule:evenodd;stroke:none"
         id="path24" /><path
         d="m 2214.51,3941.09 c 510.43,-36.11 1206.19,-163.5 1723.66,-284.01 -195.45,140.4 -595.59,287.8 -854.35,308.58 l 15.9,323.42 -885.21,-347.99"
         style="fill:#2e4d8b;fill-opacity:1;fill-rule:evenodd;stroke:none"
         id="path26" /><path
         d="m 3412.08,1815.47 c -510.42,-33.89 -1391.73,56.44 -1909.24,220.4 195.46,-140.4 828.89,-335.51 1087.65,-356.29 l -10.6,-212.08 832.19,347.97"
         style="fill:#7dd5f5;fill-opacity:1;fill-rule:evenodd;stroke:none"
         id="path28" /></g></g></svg>
